<svg xmlns="http://www.w3.org/2000/svg" xmlns:xlink="http://www.w3.org/1999/xlink" class="" app-context="doc-2d" x="0px" y="0px" width="595.2755905512" height="841.8897637795" jvs-fullPath="_new_1508734844604/Untitled"><title/><desc/><defs><link xmlns="http://www.w3.org/1999/xhtml" no-compile="" rel="stylesheet" type="text/css" href="https://fonts.googleapis.com/css?family=Open+Sans:regular"></link></defs><g id="jvs-guides" transform="matrix(1 0 0 1 0 0)"/><g id="jvs-content" enable-background="new"><g transform="matrix(1,0,0,1,0,0)" name="Layer" jvs-layer-color="#fb0094" class="jvs-layer selected"><rect transform="matrix(1 0 0 1 69.9761 452.267)" width="100" height="60" fill="none" stroke="#000000" stroke-width="5" stroke-linecap="butt" stroke-linejoin="miter" opacity="1" x="0.0238724" y="-2.26748" rx="0"/><rect transform="matrix(1 0 0 1 70.7401 560.751)" width="100" height="60" fill="none" stroke="#000000" stroke-width="5" stroke-linecap="butt" stroke-linejoin="miter" opacity="1" x="-0.7401090264320374" y="-0.7505583763122559" rx="0"/><rect transform="matrix(1 0 0 1 247.614 399.329)" width="100" height="60" fill="none" stroke="#000000" stroke-width="5" stroke-linecap="butt" stroke-linejoin="miter" opacity="1" x="-7.613908290863037" y="50.670867919921875" rx="0"/><rect transform="matrix(1 0 0 1 248.378 507.813)" width="100" height="60" fill="none" stroke="#000000" stroke-width="5" stroke-linecap="butt" stroke-linejoin="miter" opacity="1" x="-7.613908290863037" y="50.670867919921875" rx="0"/><rect transform="matrix(1 0 0 1 245.634 345.633)" width="100" height="60" fill="none" stroke="#000000" stroke-width="5" stroke-linecap="butt" stroke-linejoin="miter" opacity="1" x="164.36631774902344" y="104.36676025390625" rx="0"/><rect transform="matrix(1 0 0 1 246.398 454.117)" width="100" height="60" fill="none" stroke="#000000" stroke-width="5" stroke-linecap="butt" stroke-linejoin="miter" opacity="1" x="163.60231018066406" y="105.88278198242188" rx="0"/><rect transform="matrix(1 0 0 1 255.252 401.391)" width="380" height="100" fill="none" stroke="#000000" stroke-width="5" stroke-linecap="butt" stroke-linejoin="miter" opacity="1" x="-155.25169372558594" y="-101.3912582397461" rx="0"/><rect transform="matrix(1 0 0 1 255.252 401.391)" width="100" height="60" fill="none" stroke="#000000" stroke-width="5" stroke-linecap="butt" stroke-linejoin="miter" opacity="1" x="-15.251692771911621" y="-211.39126586914062" rx="0"/><text controller-class="Text_box" transform="matrix(1,0,0,1,240.7639617919922,558.4839477539062)" width="100.00001525878906" height="55" font-family="Open Sans" font-size="20" font-style="regular" text-align="center" text-anchor="middle" fill="none" stroke="#000000" stroke-width="2" stroke-linecap="butt" stroke-linejoin="miter" opacity="1" style=""><tspan x="50.00000762939453" y="20" newline=""><![CDATA[Curr.]]></tspan><tspan x="50.00000762939453" y="47.5" newline=""><![CDATA[Residue]]></tspan></text><text controller-class="Text_box" transform="matrix(1,0,0,1,70,560)" width="100" height="55" font-family="Open Sans" font-size="20" font-style="regular" text-align="center" text-anchor="middle" fill="none" stroke="#000000" stroke-width="2.00" stroke-linecap="butt" stroke-linejoin="miter" opacity="1" style=""><tspan x="50" y="20" newline=""><![CDATA[Prev.]]></tspan><tspan x="50" y="47.5" newline=""><![CDATA[Residue]]></tspan></text><text controller-class="Text_box" transform="matrix(1,0,0,1,410,560)" width="100" height="55" font-family="Open Sans" font-size="20" font-style="regular" text-align="center" text-anchor="middle" fill="none" stroke="#000000" stroke-width="2.00" stroke-linecap="butt" stroke-linejoin="miter" opacity="1" style=""><tspan x="50" y="20" newline=""><![CDATA[Next]]></tspan><tspan x="50" y="47.5" newline=""><![CDATA[Residue]]></tspan></text><text controller-class="Text_box" transform="matrix(1 0 0 1 240 463.391)" width="100" height="27.5" font-family="Open Sans" font-size="20" font-style="regular" text-align="center" text-anchor="middle" fill="none" stroke="#000000" stroke-width="2.00" stroke-linecap="butt" stroke-linejoin="miter" opacity="1" style=""><tspan x="50" y="20" newline=""><![CDATA[Dist. Rep.]]></tspan></text><text controller-class="Text_box" transform="matrix(1 0 0 1 70 463.391)" width="100" height="27.5" font-family="Open Sans" font-size="20" font-style="regular" text-align="center" text-anchor="middle" fill="none" stroke="#000000" stroke-width="2.00" stroke-linecap="butt" stroke-linejoin="miter" opacity="1" style=""><tspan x="50" y="20" newline=""><![CDATA[Dist. Rep.]]></tspan></text><text controller-class="Text_box" transform="matrix(1 0 0 1 410 463.391)" width="100" height="27.5" font-family="Open Sans" font-size="20" font-style="regular" text-align="center" text-anchor="middle" fill="none" stroke="#000000" stroke-width="2.00" stroke-linecap="butt" stroke-linejoin="miter" opacity="1" style=""><tspan x="50" y="20" newline=""><![CDATA[Dist. Rep.]]></tspan></text><text controller-class="Text_box" transform="matrix(1,0,0,1,240,190)" width="100" height="55" font-family="Open Sans" font-size="20" font-style="regular" text-align="center" text-anchor="middle" fill="none" stroke="#000000" stroke-width="2.00" stroke-linecap="butt" stroke-linejoin="miter" opacity="1" style=""><tspan x="50" y="20" newline=""><![CDATA[Curr. Res.]]></tspan><tspan x="50" y="47.5" newline=""><![CDATA[Structure]]></tspan></text><text controller-class="Text_box" transform="matrix(1 0 0 1 100 336.67)" width="380" height="27.5" font-family="Open Sans" font-size="20" font-style="regular" text-align="center" text-anchor="middle" fill="none" stroke="#000000" stroke-width="2.00" stroke-linecap="butt" stroke-linejoin="miter" opacity="1" style=""><tspan x="190" y="20" newline=""><![CDATA[Hidden Layer]]></tspan></text><path fill="none" stroke="#000000" stroke-width="2.00" stroke-linecap="butt" stroke-linejoin="miter" opacity="1" d="M 118.86990356445312 559.2225952148438 L 118.86990356445312 514.91259765625" transform="matrix(1 0 0 1 -1.13687e-13 -1)"/><path fill="none" stroke="#000000" stroke-width="NaN" stroke-linecap="butt" stroke-linejoin="miter" opacity="1" d="M NaN NaN L NaN NaN" transform="matrix(NaN NaN NaN NaN 0 0)"/><path fill="none" stroke="#000000" stroke-width="2.00" stroke-linecap="butt" stroke-linejoin="miter" opacity="1" d="M 118.86990356445312 559.2225952148438 L 118.86990356445312 514.91259765625" transform="matrix(1 0 0 1 171.128 -1.52793)"/><path fill="none" stroke="#000000" stroke-width="2.00" stroke-linecap="butt" stroke-linejoin="miter" opacity="1" d="M 118.86990356445312 559.2225952148438 L 118.86990356445312 514.91259765625" transform="matrix(1 0 0 1 343.784 -1.52793)"/><path fill="none" stroke="#000000" stroke-width="2.00" stroke-linecap="butt" stroke-linejoin="miter" opacity="1" d="M 121.92576599121094 449.21160888671875 L 204.43402099609375 401.84576416015625"/><path fill="none" stroke="#000000" stroke-width="2.00" stroke-linecap="butt" stroke-linejoin="miter" opacity="1" d="M 291.52606201171875 449.21160888671875 L 291.52606201171875 404.901611328125" transform="matrix(1 0 0 1 -1.13687e-13 -1)"/><path fill="none" stroke="#000000" stroke-width="2.00" stroke-linecap="butt" stroke-linejoin="miter" opacity="1" d="M 464.1822204589844 449.21160888671875 L 401.5370788574219 401.84576416015625"/><path fill="none" stroke="#000000" stroke-width="2.00" stroke-linecap="butt" stroke-linejoin="miter" opacity="1" d="M 289.9981384277344 301.0023193359375 L 289.9981384277344 252.10855102539062"/></g></g></svg>