<svg width="512" height="512" xmlns="http://www.w3.org/2000/svg">

 <g>
  <title>background</title>
  <rect fill="none" id="canvas_background" height="514" width="514" y="-1" x="-1"/>
 </g>
 <g>
  <title>Layer 1</title>
  <path fill="#edc421" clip-rule="evenodd" fill-rule="evenodd" id="svg_1" d="m237.829908,312.907c-26.06,28.202 -52.417,58.109 -79.416,85.539c-9.65,11.529 -30.774,-6.765 -20.9,-18.249l69.873,-93.551l1.711,1.465c20.81,-28.191 10.388,-64.494 16.482,-71.707l24.579,-29.076l19.692,16.692c1.24,1.051 3.119,0.897 4.176,-0.347l0.225,-0.263c1.051,-1.244 0.9,-3.126 -0.342,-4.177l-19.703,-16.698l29.755,-35.21l19.748,16.74c1.242,1.051 3.121,0.897 4.178,-0.347l0.223,-0.263c1.057,-1.241 0.9,-3.123 -0.34,-4.177l-19.76,-16.746l29.756,-35.21l19.805,16.788c1.246,1.054 3.125,0.899 4.182,-0.345l0.223,-0.263c1.051,-1.244 0.895,-3.125 -0.346,-4.176l-19.814,-16.796l29.756,-35.211l19.865,16.838c1.246,1.054 3.125,0.897 4.176,-0.347l0.225,-0.263c1.051,-1.244 0.895,-3.122 -0.348,-4.177l-19.873,-16.839l6.262,-7.408c-31.611,-16.695 -67.641,-26.147 -105.874,-26.147c-62.699,0 -119.454,25.412 -160.538,66.493c-41.078,41.078 -66.489,97.839 -66.489,160.532s25.412,119.455 66.49,160.532c41.084,41.078 97.839,66.49 160.538,66.49c62.688,0 119.45,-25.412 160.534,-66.49c41.078,-41.077 66.49,-97.839 66.49,-160.532c0,-49.635 -15.936,-95.55 -42.951,-132.909c-6.084,7.15 -12.168,14.305 -18.268,21.461l-20.289,-17.195c-1.242,-1.054 -3.121,-0.9 -4.178,0.344l-0.223,0.266c-1.057,1.241 -0.9,3.123 0.34,4.174l20.279,17.185c-9.945,11.666 -19.932,23.346 -29.957,35.039l-20.123,-17.053c-1.24,-1.054 -3.125,-0.9 -4.182,0.344l-0.219,0.263c-1.057,1.244 -0.898,3.123 0.342,4.177l20.094,17.031c-9.975,11.629 -19.992,23.272 -30.068,34.944l-19.826,-16.807c-1.24,-1.055 -3.131,-0.897 -4.182,0.344l-0.225,0.263c-1.051,1.244 -0.895,3.125 0.348,4.179l19.787,16.769c-16.193,18.741 -32.523,37.55 -49.047,56.453c-5.977,6.844 -40.787,0.845 -63.822,26.625l1.169,1.009zm163.53,-231.304l-180.533,212.591l-3.696,-3.12l179.878,-213.01c1.465,1.163 2.914,2.339 4.351,3.539zm-174.159,217.969l180.46,-212.512c1.408,1.264 2.795,2.547 4.17,3.844l-179.715,212.818l-4.915,-4.15zm28.805,-299.572c141.383,0 255.997,114.615 255.997,256.001c0,141.383 -114.613,256.001 -255.997,256.001c-141.388,0 -256.006,-114.618 -256.006,-256.001c0,-141.386 114.618,-256.001 256.006,-256.001z" class="st0"/>
 </g>
</svg>